<?xml version="1.0" encoding="UTF-8"?>
<!DOCTYPE svg PUBLIC "-//W3C//DTD SVG 1.1//EN" "http://www.w3.org/Graphics/SVG/1.1/DTD/svg11.dtd">
<svg xmlns="http://www.w3.org/2000/svg" version="1.1" width="1320px" height="1000px" style="shape-rendering:geometricPrecision; text-rendering:geometricPrecision; image-rendering:optimizeQuality; fill-rule:evenodd; clip-rule:evenodd" xmlns:xlink="http://www.w3.org/1999/xlink">
<g><path style="opacity:1" fill="#0dcdd9" d="M -0.5,-0.5 C 439.5,-0.5 879.5,-0.5 1319.5,-0.5C 1319.5,332.833 1319.5,666.167 1319.5,999.5C 879.5,999.5 439.5,999.5 -0.5,999.5C -0.5,666.167 -0.5,332.833 -0.5,-0.5 Z"/></g>
<g><path style="opacity:1" fill="#111111" d="M 627.5,339.5 C 629.308,339.491 630.975,339.991 632.5,341C 636.422,344.251 639.588,348.084 642,352.5C 653.043,372.301 662.543,392.801 670.5,414C 654.811,452.4 640.311,491.233 627,530.5C 613.222,531.824 599.222,532.491 585,532.5C 571.167,532.333 557.333,532.167 543.5,532C 562.134,477.077 583.301,422.91 607,369.5C 610.172,365.159 612.839,360.492 615,355.5C 618.267,349.407 622.434,344.074 627.5,339.5 Z"/></g>
<g><path style="opacity:1" fill="#0dcad6" d="M 626.5,347.5 C 628.199,347.34 629.866,347.506 631.5,348C 635.036,352.237 638.202,356.737 641,361.5C 649.851,379.035 658.018,396.868 665.5,415C 665.15,416.257 664.483,416.591 663.5,416C 658.656,412.485 653.823,408.985 649,405.5C 641.385,413.281 633.551,420.947 625.5,428.5C 620.833,424.167 616.167,419.833 611.5,415.5C 602.912,421.377 594.412,427.377 586,433.5C 591.989,415.891 598.989,398.558 607,381.5C 612.248,369.324 618.748,357.99 626.5,347.5 Z"/></g>
<g><path style="opacity:1" fill="#111111" d="M 774.5,532.5 C 727.488,533.162 680.821,532.495 634.5,530.5C 648.83,487.894 664.997,445.894 683,404.5C 686.962,396.603 691.295,388.936 696,381.5C 698.349,378.983 700.849,376.65 703.5,374.5C 708.526,377.359 712.359,381.359 715,386.5C 728.572,411.979 740.239,438.312 750,465.5C 758.47,487.747 766.637,510.08 774.5,532.5 Z"/></g>
<g><path style="opacity:1" fill="#0dcad5" d="M 702.5,382.5 C 705.195,382.933 707.362,384.266 709,386.5C 722.543,410.818 733.543,436.151 742,462.5C 734.827,456.917 727.493,451.583 720,446.5C 715.879,449.618 712.046,453.118 708.5,457C 707.5,457.667 706.5,457.667 705.5,457C 698.625,450.292 691.958,443.459 685.5,436.5C 680.521,440.311 675.688,444.311 671,448.5C 677.559,428.518 685.892,409.185 696,390.5C 698.001,387.669 700.167,385.003 702.5,382.5 Z"/></g>
<g><path style="opacity:1" fill="#0e9ea7" d="M 634.5,530.5 C 680.821,532.495 727.488,533.162 774.5,532.5C 727.67,533.499 680.67,533.832 633.5,533.5C 633.263,532.209 633.596,531.209 634.5,530.5 Z"/></g>
<g><path style="opacity:1" fill="#121516" d="M 259.5,630.5 C 256.375,629.521 253.042,629.187 249.5,629.5C 249.5,628.167 249.5,626.833 249.5,625.5C 256.833,625.5 264.167,625.5 271.5,625.5C 271.667,636.505 271.5,647.505 271,658.5C 267.367,656.139 263.367,655.139 259,655.5C 252.473,656.452 245.973,657.618 239.5,659C 216.61,659.78 202.776,648.947 198,626.5C 197.276,605.879 206.776,592.379 226.5,586C 239.528,583.513 251.528,585.847 262.5,593C 265.553,596.387 268.22,600.053 270.5,604C 265.5,604.667 260.5,604.667 255.5,604C 247.975,593.07 237.642,588.404 224.5,590C 215.254,594.818 210.587,602.485 210.5,613C 211.516,625.384 215.682,636.551 223,646.5C 235.103,658.395 247.103,658.395 259,646.5C 259.499,641.177 259.666,635.844 259.5,630.5 Z"/></g>
<g><path style="opacity:1" fill="#0e979f" d="M 793.5,586.5 C 815.66,585.503 837.994,585.169 860.5,585.5C 860.815,589.371 860.482,593.038 859.5,596.5C 859.5,593.167 859.5,589.833 859.5,586.5C 837.5,586.5 815.5,586.5 793.5,586.5 Z"/></g>
<g><path style="opacity:1" fill="#111313" d="M 304.5,586.5 C 309.5,586.5 314.5,586.5 319.5,586.5C 319.333,606.503 319.5,626.503 320,646.5C 321.827,650.467 323.327,654.467 324.5,658.5C 317.833,658.5 311.167,658.5 304.5,658.5C 305.673,654.467 307.173,650.467 309,646.5C 309.667,630.5 309.667,614.5 309,598.5C 307.173,594.533 305.673,590.533 304.5,586.5 Z"/></g>
<g><path style="opacity:1" fill="#111313" d="M 330.5,586.5 C 335.5,586.5 340.5,586.5 345.5,586.5C 345.333,606.503 345.5,626.503 346,646.5C 347.827,650.467 349.327,654.467 350.5,658.5C 343.833,658.5 337.167,658.5 330.5,658.5C 331.673,654.467 333.173,650.467 335,646.5C 335.667,630.5 335.667,614.5 335,598.5C 333.173,594.533 331.673,590.533 330.5,586.5 Z"/></g>
<g><path style="opacity:1" fill="#131717" d="M 475.5,655.5 C 468.913,657.461 461.913,658.128 454.5,657.5C 455.987,653.855 457.487,650.189 459,646.5C 459.5,628.17 459.667,609.836 459.5,591.5C 454.489,591.334 449.489,591.501 444.5,592C 442.156,592.837 440.156,594.171 438.5,596C 436.19,596.497 433.857,596.663 431.5,596.5C 431.5,593.167 431.5,589.833 431.5,586.5C 453.833,586.5 476.167,586.5 498.5,586.5C 498.5,589.833 498.5,593.167 498.5,596.5C 496.473,596.662 494.473,596.495 492.5,596C 490.623,593.894 488.29,592.561 485.5,592C 480.845,591.501 476.179,591.334 471.5,591.5C 471.333,610.17 471.5,628.836 472,647.5C 472.921,650.336 474.088,653.002 475.5,655.5 Z"/></g>
<g><path style="opacity:1" fill="#131717" d="M 712.5,586.5 C 720.699,585.1 727.865,587.1 734,592.5C 739.268,600.614 738.102,607.781 730.5,614C 726.323,616.059 721.99,617.726 717.5,619C 724.646,627.648 731.98,636.148 739.5,644.5C 743.81,640.333 744.476,635.667 741.5,630.5C 744.784,629.343 748.118,629.176 751.5,630C 750.667,630.833 749.833,631.667 749,632.5C 747.703,638.192 745.87,643.692 743.5,649C 744.609,650.861 746.275,651.695 748.5,651.5C 750.818,651.003 753.152,650.67 755.5,650.5C 755.5,653.167 755.5,655.833 755.5,658.5C 749.252,659.138 743.752,657.472 739,653.5C 728.014,659.393 716.847,659.893 705.5,655C 692.998,645.957 691.331,635.29 700.5,623C 703.5,621.167 706.5,619.333 709.5,617.5C 696.558,605.477 697.558,595.144 712.5,586.5 Z"/></g>
<g><path style="opacity:1" fill="#111314" d="M 793.5,586.5 C 815.5,586.5 837.5,586.5 859.5,586.5C 859.5,589.833 859.5,593.167 859.5,596.5C 857.473,596.662 855.473,596.495 853.5,596C 851.623,593.894 849.29,592.561 846.5,592C 841.845,591.501 837.179,591.334 832.5,591.5C 832.333,609.836 832.5,628.17 833,646.5C 833.996,650.477 835.496,654.144 837.5,657.5C 830.5,657.5 823.5,657.5 816.5,657.5C 816.5,656.5 816.5,655.5 816.5,654.5C 818.467,651.784 819.967,648.784 821,645.5C 821.5,627.503 821.667,609.503 821.5,591.5C 816.156,591.334 810.823,591.501 805.5,592C 803.156,592.837 801.156,594.171 799.5,596C 797.527,596.495 795.527,596.662 793.5,596.5C 793.5,593.167 793.5,589.833 793.5,586.5 Z"/></g>
<g><path style="opacity:1" fill="#111313" d="M 1057.5,586.5 C 1062.5,586.5 1067.5,586.5 1072.5,586.5C 1072.33,606.503 1072.5,626.503 1073,646.5C 1074.83,650.467 1076.33,654.467 1077.5,658.5C 1070.83,658.5 1064.17,658.5 1057.5,658.5C 1058.67,654.467 1060.17,650.467 1062,646.5C 1062.67,630.5 1062.67,614.5 1062,598.5C 1060.2,594.572 1058.7,590.572 1057.5,586.5 Z"/></g>
<g><path style="opacity:1" fill="#0dc9d5" d="M 713.5,589.5 C 726.09,589.601 731.256,595.934 729,608.5C 728.535,609.931 727.701,611.097 726.5,612C 722.155,614.386 717.655,615.219 713,614.5C 710.086,610.259 708.253,605.592 707.5,600.5C 707.706,595.747 709.706,592.081 713.5,589.5 Z"/></g>
<g><path style="opacity:1" fill="#131717" d="M 284.5,589.5 C 290.247,588.866 293.58,591.366 294.5,597C 293.306,603.149 289.639,605.149 283.5,603C 279.285,598.134 279.618,593.634 284.5,589.5 Z"/></g>
<g><path style="opacity:1" fill="#111111" d="M 297.5,654.5 C 297.5,655.5 297.5,656.5 297.5,657.5C 291.833,657.5 286.167,657.5 280.5,657.5C 280.5,656.5 280.5,655.5 280.5,654.5C 283.907,647.965 285.24,640.965 284.5,633.5C 284.333,629.5 284.167,625.5 284,621.5C 282.455,617.1 280.955,612.767 279.5,608.5C 284.167,608.5 288.833,608.5 293.5,608.5C 293.333,621.171 293.5,633.838 294,646.5C 294.906,649.31 296.073,651.976 297.5,654.5 Z"/></g>
<g><path style="opacity:1" fill="#131717" d="M 369.5,608.5 C 375.81,607.856 381.81,608.856 387.5,611.5C 388.474,613.743 388.808,616.076 388.5,618.5C 384.845,618.528 382.178,616.861 380.5,613.5C 376.246,611.093 371.912,610.926 367.5,613C 364.689,616.294 365.022,619.294 368.5,622C 375.498,625.497 382.165,629.497 388.5,634C 396.422,641.453 396.422,648.786 388.5,656C 378.324,659.564 368.324,659.064 358.5,654.5C 357.52,651.914 357.187,649.247 357.5,646.5C 358.978,646.238 360.311,646.571 361.5,647.5C 366.148,654.165 372.481,656.331 380.5,654C 385.522,652.742 386.689,649.909 384,645.5C 378.11,640.137 371.61,635.637 364.5,632C 354.006,621.639 355.672,613.806 369.5,608.5 Z"/></g>
<g><path style="opacity:1" fill="#121516" d="M 522.5,608.5 C 537.934,606.133 549.101,611.799 556,625.5C 559.238,639.81 554.404,650.31 541.5,657C 525.321,662.639 513.155,658.139 505,643.5C 500.217,626.4 506.05,614.733 522.5,608.5 Z"/></g>
<g><path style="opacity:1" fill="#131617" d="M 563.5,608.5 C 569.5,608.5 575.5,608.5 581.5,608.5C 581.159,611.516 579.993,614.182 578,616.5C 577.333,625.833 577.333,635.167 578,644.5C 582.524,653.669 589.357,655.835 598.5,651C 600.041,649.421 601.208,647.587 602,645.5C 602.667,635.5 602.667,625.5 602,615.5C 600.097,613.559 599.264,611.226 599.5,608.5C 603.167,608.5 606.833,608.5 610.5,608.5C 610.519,611.659 609.352,614.326 607,616.5C 606.934,627.905 606.267,639.238 605,650.5C 601.139,656.796 595.472,659.463 588,658.5C 576.11,658.942 569.444,653.275 568,641.5C 567.667,633.5 567.333,625.5 567,617.5C 565.047,614.745 563.88,611.745 563.5,608.5 Z"/></g>
<g><path style="opacity:1" fill="#111313" d="M 617.5,608.5 C 622.833,608.5 628.167,608.5 633.5,608.5C 633.34,610.199 633.506,611.866 634,613.5C 640.281,608.445 647.115,607.445 654.5,610.5C 653.512,613.45 652.679,616.45 652,619.5C 645.858,614.287 639.858,614.287 634,619.5C 633.333,628.5 633.333,637.5 634,646.5C 635.827,650.467 637.327,654.467 638.5,658.5C 631.5,658.5 624.5,658.5 617.5,658.5C 618.673,654.467 620.173,650.467 622,646.5C 622.667,637.833 622.667,629.167 622,620.5C 620.173,616.533 618.673,612.533 617.5,608.5 Z"/></g>
<g><path style="opacity:1" fill="#111212" d="M 885.5,654.5 C 885.5,655.5 885.5,656.5 885.5,657.5C 878.5,657.5 871.5,657.5 864.5,657.5C 865.963,653.895 867.463,650.229 869,646.5C 869.667,637.833 869.667,629.167 869,620.5C 866.749,616.761 865.249,612.761 864.5,608.5C 869.833,608.5 875.167,608.5 880.5,608.5C 880.34,610.199 880.506,611.866 881,613.5C 882.731,611.383 884.898,609.883 887.5,609C 892.537,608.337 897.537,608.504 902.5,609.5C 901.335,612.693 899.669,615.693 897.5,618.5C 891.549,614.211 886.049,614.545 881,619.5C 880.333,628.5 880.333,637.5 881,646.5C 881.754,649.684 883.254,652.351 885.5,654.5 Z"/></g>
<g><path style="opacity:1" fill="#131818" d="M 910.5,608.5 C 921.701,606.835 930.534,610.502 937,619.5C 938.443,632.426 938.943,645.426 938.5,658.5C 929.52,657.598 920.52,657.431 911.5,658C 898.753,651.759 895.586,642.259 902,629.5C 909.018,622.041 917.018,620.707 926,625.5C 927.426,620.243 926.259,615.743 922.5,612C 916.672,610.748 912.672,612.915 910.5,618.5C 907.5,619.833 904.5,619.833 901.5,618.5C 903.839,614.498 906.839,611.165 910.5,608.5 Z"/></g>
<g><path style="opacity:1" fill="#121616" d="M 944.5,608.5 C 950.833,608.5 957.167,608.5 963.5,608.5C 962.751,612.819 962.585,617.152 963,621.5C 967,631.5 971,641.5 975,651.5C 979.911,641.108 984.244,630.441 988,619.5C 988.45,615.812 988.283,612.146 987.5,608.5C 991.5,608.5 995.5,608.5 999.5,608.5C 999.649,609.552 999.483,610.552 999,611.5C 996.815,612.928 994.815,614.595 993,616.5C 987.528,630.42 982.361,644.42 977.5,658.5C 973.5,658.5 969.5,658.5 965.5,658.5C 961.503,646.01 957.003,633.677 952,621.5C 950.651,617.467 948.318,614.134 945,611.5C 944.517,610.552 944.351,609.552 944.5,608.5 Z"/></g>
<g><path style="opacity:1" fill="#131818" d="M 1021.5,607.5 C 1039.84,606.851 1050.17,615.518 1052.5,633.5C 1038.83,633.5 1025.17,633.5 1011.5,633.5C 1012.76,643.573 1017.76,651.073 1026.5,656C 1036.37,656.976 1042.04,652.476 1043.5,642.5C 1050.24,641.41 1051.74,643.41 1048,648.5C 1034.28,662.741 1020.28,663.074 1006,649.5C 995.69,629.786 1000.86,615.786 1021.5,607.5 Z"/></g>
<g><path style="opacity:1" fill="#131818" d="M 1096.5,608.5 C 1100.51,608.334 1104.51,608.501 1108.5,609C 1111.02,610.341 1113.69,611.174 1116.5,611.5C 1116.5,613.833 1116.5,616.167 1116.5,618.5C 1112.13,618.977 1109.13,617.144 1107.5,613C 1102.57,610.702 1097.91,611.036 1093.5,614C 1091.88,617.206 1092.54,619.872 1095.5,622C 1103.54,626.045 1111.04,630.878 1118,636.5C 1124.42,646.815 1121.92,653.982 1110.5,658C 1101.82,659.285 1093.48,658.118 1085.5,654.5C 1084.52,651.914 1084.19,649.247 1084.5,646.5C 1085.87,646.343 1087.21,646.51 1088.5,647C 1092.89,654.149 1099.22,656.483 1107.5,654C 1112.51,652.788 1113.68,649.955 1111,645.5C 1105.11,640.137 1098.61,635.637 1091.5,632C 1081.19,621.749 1082.86,613.916 1096.5,608.5 Z"/></g>
<g><path style="opacity:1" fill="#0ec4cf" d="M 1018.5,611.5 C 1030.82,611.475 1038.48,617.475 1041.5,629.5C 1031.17,629.5 1020.83,629.5 1010.5,629.5C 1009.4,621.712 1012.06,615.712 1018.5,611.5 Z"/></g>
<g><path style="opacity:1" fill="#0dcad6" d="M 520.5,612.5 C 534.881,612.697 543.381,620.031 546,634.5C 547.629,643.298 544.796,650.132 537.5,655C 533.548,655.912 529.881,655.245 526.5,653C 516.575,643.47 513.075,631.97 516,618.5C 517.332,616.34 518.832,614.34 520.5,612.5 Z"/></g>
<g><path style="opacity:1" fill="#0dc9d4" d="M 710.5,621.5 C 712.39,621.297 713.89,621.963 715,623.5C 722.167,632 729.333,640.5 736.5,649C 721.985,657.844 711.485,654.344 705,638.5C 703.076,631.441 704.91,625.775 710.5,621.5 Z"/></g>
<g><path style="opacity:1" fill="#0dc9d5" d="M 909.5,626.5 C 921.055,625.887 927.055,631.387 927.5,643C 928.103,651.215 924.436,655.215 916.5,655C 908.05,649.929 904.55,642.429 906,632.5C 906.926,630.308 908.093,628.308 909.5,626.5 Z"/></g>
<g><path style="opacity:1" fill="#114e52" d="M 249.5,625.5 C 249.5,626.833 249.5,628.167 249.5,629.5C 253.042,629.187 256.375,629.521 259.5,630.5C 255.833,630.5 252.167,630.5 248.5,630.5C 248.216,628.585 248.549,626.919 249.5,625.5 Z"/></g>
<g><path style="opacity:1" fill="#113e41" d="M 280.5,654.5 C 280.5,655.5 280.5,656.5 280.5,657.5C 286.167,657.5 291.833,657.5 297.5,657.5C 297.5,656.5 297.5,655.5 297.5,654.5C 298.434,655.568 298.768,656.901 298.5,658.5C 292.167,658.5 285.833,658.5 279.5,658.5C 279.232,656.901 279.566,655.568 280.5,654.5 Z"/></g>
<g><path style="opacity:1" fill="#104144" d="M 475.5,655.5 C 476.404,656.209 476.737,657.209 476.5,658.5C 468.981,658.825 461.648,658.492 454.5,657.5C 461.913,658.128 468.913,657.461 475.5,655.5 Z"/></g>
<g><path style="opacity:1" fill="#103f42" d="M 816.5,654.5 C 816.5,655.5 816.5,656.5 816.5,657.5C 823.5,657.5 830.5,657.5 837.5,657.5C 830.352,658.492 823.019,658.825 815.5,658.5C 815.232,656.901 815.566,655.568 816.5,654.5 Z"/></g>
<g><path style="opacity:1" fill="#10484c" d="M 885.5,654.5 C 886.434,655.568 886.768,656.901 886.5,658.5C 878.981,658.825 871.648,658.492 864.5,657.5C 871.5,657.5 878.5,657.5 885.5,657.5C 885.5,656.5 885.5,655.5 885.5,654.5 Z"/></g>
</svg>
